<?xml version="1.0" standalone="no"?>
<!DOCTYPE svg PUBLIC "-//W3C//DTD SVG 20010904//EN"
 "http://www.w3.org/TR/2001/REC-SVG-20010904/DTD/svg10.dtd">
<svg version="1.0" xmlns="http://www.w3.org/2000/svg"
 width="1280.000000pt" height="166.000000pt" viewBox="0 0 1280.000000 166.000000"
 preserveAspectRatio="xMidYMid meet">

<g transform="translate(0.000000,166.000000) scale(0.100000,-0.100000)"
fill="#000000" stroke="none">
<path d="M3870 1634 c-91 -13 -184 -26 -207 -29 -34 -5 -43 -10 -43 -26 0 -11
7 -19 18 -19 35 0 83 -40 105 -88 22 -46 22 -55 25 -620 2 -401 0 -590 -8
-628 -14 -65 -57 -120 -104 -132 -17 -5 -32 -16 -34 -25 -3 -16 21 -17 298
-17 271 0 301 2 298 16 -2 9 -21 22 -43 30 -48 16 -80 51 -94 102 -7 24 -11
287 -11 750 0 672 -1 712 -17 711 -10 -1 -92 -12 -183 -25z"/>
<path d="M9815 1630 c-110 -16 -206 -29 -212 -29 -27 -2 -11 -32 24 -46 56
-23 82 -53 99 -111 12 -43 14 -141 12 -645 l-3 -594 -27 -46 c-25 -42 -40 -53
-100 -73 -10 -3 -18 -12 -18 -21 0 -13 37 -15 300 -15 263 0 300 2 300 15 0 9
-8 18 -17 21 -49 15 -83 40 -104 77 l-24 42 -3 728 c-2 566 -5 727 -15 726 -6
-1 -102 -14 -212 -29z"/>
<path d="M0 830 l0 -800 795 0 795 0 0 800 0 800 -795 0 -795 0 0 -800z m933
721 c11 -11 -10 -149 -33 -217 -36 -105 -83 -177 -170 -265 -70 -70 -102 -94
-170 -127 -116 -56 -195 -73 -359 -75 l-136 -2 3 50 c6 114 73 272 160 381
112 138 281 234 467 265 58 9 226 2 238 -10z m149 -42 c147 -58 301 -204 373
-353 56 -117 75 -199 75 -320 0 -220 -78 -399 -241 -550 -67 -62 -227 -156
-265 -156 -12 0 -14 107 -14 700 0 442 4 700 10 700 5 0 33 -9 62 -21z m-667
-734 c33 -8 98 -34 145 -57 69 -33 102 -58 171 -127 123 -124 184 -250 204
-423 6 -54 5 -58 -17 -62 -64 -13 -131 -15 -206 -6 -270 34 -497 209 -599 460
-27 68 -56 207 -48 229 5 12 29 13 148 8 78 -3 169 -13 202 -22z"/>
<path d="M2342 1583 c2 -10 18 -22 37 -27 44 -13 84 -55 99 -103 9 -29 12
-204 12 -637 0 -516 -2 -602 -15 -634 -21 -50 -51 -80 -89 -88 -29 -6 -45 -19
-46 -36 0 -5 263 -8 585 -8 l585 0 0 155 c0 174 -5 185 -55 107 -22 -34 -45
-54 -89 -77 -59 -30 -62 -30 -240 -33 -208 -4 -247 3 -276 51 -18 29 -20 52
-20 280 l0 249 198 -4 c187 -3 200 -4 247 -28 28 -14 59 -39 70 -57 40 -64 45
-46 45 152 0 146 -3 185 -13 185 -7 0 -21 -16 -30 -36 -13 -25 -30 -41 -65
-56 -41 -19 -71 -22 -249 -26 l-203 -5 0 267 0 266 216 0 c266 0 291 -5 361
-77 29 -29 55 -53 58 -53 3 0 5 65 5 145 l0 145 -566 0 c-529 0 -565 -1 -562
-17z"/>
<path d="M6773 1181 c-117 -121 -213 -222 -213 -225 0 -3 28 -6 63 -8 l62 -3
5 -361 5 -360 30 -59 c36 -70 93 -118 167 -140 72 -21 183 -19 259 4 73 23
167 85 180 119 10 25 12 92 4 92 -3 0 -34 -9 -68 -21 -116 -39 -209 -11 -253
78 -17 35 -19 64 -19 343 l0 305 135 5 c74 3 143 9 153 14 24 11 47 58 47 95
l0 31 -167 2 -168 3 -5 153 -5 152 -212 -219z"/>
<path d="M4745 1124 c-224 -35 -370 -167 -422 -381 -22 -94 -22 -288 0 -372
63 -235 234 -353 512 -354 176 -1 334 54 434 150 48 47 51 52 51 101 0 29 -2
52 -5 52 -3 0 -29 -13 -58 -30 -172 -97 -388 -105 -512 -20 -73 51 -112 133
-122 263 l-6 77 367 0 366 0 0 51 c0 67 -27 183 -57 242 -72 143 -205 215
-413 222 -58 2 -118 1 -135 -1z m210 -147 c53 -30 86 -90 93 -173 l5 -64 -217
0 c-202 0 -217 1 -213 18 3 9 11 41 17 69 13 57 55 123 95 149 59 39 150 39
220 1z"/>
<path d="M5903 1115 c-206 -37 -351 -177 -397 -382 -21 -93 -21 -269 -1 -348
56 -216 202 -336 446 -366 191 -23 382 35 512 154 34 32 37 39 37 92 0 31 -3
55 -7 53 -5 -2 -37 -18 -72 -36 -216 -113 -455 -89 -551 56 -102 154 -85 447
33 570 55 58 101 75 192 74 139 -1 212 -42 307 -169 21 -29 43 -53 48 -53 6 0
10 59 10 149 l0 149 -27 10 c-59 22 -101 32 -198 47 -120 18 -234 18 -332 0z"/>
<path d="M8108 1115 c-67 -24 -127 -74 -178 -147 l-50 -71 0 106 c0 104 -1
107 -22 107 -44 -1 -418 -56 -424 -63 -11 -11 15 -35 45 -42 35 -7 65 -38 86
-87 12 -31 15 -92 15 -370 0 -300 -2 -337 -19 -373 -21 -48 -38 -63 -88 -80
-21 -7 -39 -20 -41 -29 -3 -14 27 -16 297 -16 264 0 301 2 301 15 0 9 -8 18
-17 21 -61 20 -76 31 -101 73 -27 46 -27 47 -30 276 -2 146 0 243 7 266 14 46
77 104 128 118 21 6 74 11 119 11 l81 0 41 142 c30 105 38 145 29 150 -20 13
-139 8 -179 -7z"/>
<path d="M8712 1110 c-263 -69 -395 -275 -378 -590 10 -183 48 -293 131 -375
92 -92 210 -127 435 -127 176 -1 266 14 366 61 171 80 244 229 246 496 2 304
-112 470 -368 535 -106 27 -327 27 -432 0z m281 -131 c52 -14 110 -69 135
-127 32 -74 45 -197 39 -356 -6 -160 -23 -229 -68 -280 -74 -85 -252 -88 -338
-6 -13 13 -34 46 -47 75 -49 106 -55 393 -12 534 40 132 159 197 291 160z"/>
<path d="M10408 1080 c-109 -14 -201 -29 -204 -33 -11 -11 5 -37 23 -37 32 0
79 -37 99 -76 17 -35 19 -70 24 -365 l5 -325 30 -59 c56 -109 159 -165 304
-165 128 0 248 40 340 112 l24 18 17 -38 c25 -56 48 -62 240 -62 144 0 170 2
170 15 0 8 -15 21 -33 29 -22 9 -40 27 -53 52 -18 37 -19 69 -22 502 -2 321
-6 462 -14 462 -16 0 -400 -50 -425 -56 -27 -5 -30 -32 -5 -40 48 -15 82 -40
103 -77 24 -41 24 -46 27 -348 l3 -306 -52 -22 c-141 -61 -275 -23 -325 92
-17 38 -19 79 -22 400 l-3 357 -27 -1 c-15 -1 -116 -14 -224 -29z"/>
<path d="M11480 1081 c0 -15 18 -28 64 -50 85 -41 119 -77 265 -276 69 -94
135 -184 148 -201 l24 -32 -108 -128 c-144 -172 -230 -256 -297 -289 -99 -48
-81 -55 144 -55 215 0 227 3 175 48 -33 29 -32 68 1 118 47 69 156 205 161
201 20 -20 145 -206 149 -222 8 -33 -13 -74 -51 -96 -19 -12 -35 -27 -35 -35
0 -12 55 -14 340 -14 321 0 340 1 340 18 0 13 -15 23 -50 36 -28 10 -73 38
-100 63 -44 40 -390 482 -390 499 0 16 148 190 211 248 61 57 169 122 232 141
11 3 17 12 15 22 -3 17 -20 18 -211 16 -115 0 -211 -4 -215 -8 -3 -3 -2 -12 3
-19 46 -62 47 -65 36 -96 -10 -31 -139 -201 -150 -199 -3 0 -32 36 -63 80 -81
112 -79 146 13 210 51 35 20 39 -322 39 -319 0 -329 -1 -329 -19z"/>
</g>
</svg>
