<?xml version="1.0" standalone="no"?>
<!DOCTYPE svg PUBLIC "-//W3C//DTD SVG 20010904//EN"
 "http://www.w3.org/TR/2001/REC-SVG-20010904/DTD/svg10.dtd">
<svg version="1.0" xmlns="http://www.w3.org/2000/svg"
 width="640.000000pt" height="175.000000pt" viewBox="0 0 640.000000 175.000000"
 preserveAspectRatio="xMidYMid meet">

<g transform="translate(0.000000,175.000000) scale(0.100000,-0.100000)"
fill="#000000" stroke="none">
<path d="M913 1450 c-205 -30 -348 -119 -459 -286 -147 -220 -186 -495 -96
-669 26 -50 94 -117 148 -143 95 -48 138 -52 540 -52 227 0 394 4 416 10 20 6
58 25 84 43 75 51 103 113 172 390 l60 237 -326 -2 -325 -3 -17 -50 c-9 -27
-20 -60 -24 -72 l-7 -23 150 0 c83 0 151 -2 151 -5 0 -14 -94 -313 -106 -336
-20 -40 -62 -49 -225 -49 -190 0 -239 10 -290 61 -59 59 -75 127 -60 248 13
104 67 281 108 351 41 70 110 137 172 167 l56 28 399 5 399 5 24 69 c12 39 23
74 23 78 0 10 -897 8 -967 -2z"/>
<path d="M2090 1455 c0 -3 -45 -173 -101 -378 -157 -580 -209 -775 -209 -782
0 -3 84 -4 188 -3 l187 3 139 513 140 512 217 0 c120 0 229 -4 242 -9 89 -34
99 -155 20 -242 -68 -75 -94 -83 -300 -89 l-181 -5 148 -275 c82 -151 165
-295 186 -319 62 -72 102 -84 297 -88 92 -2 167 -1 167 2 0 3 -63 122 -140
265 -77 143 -140 264 -140 268 0 4 26 12 58 18 159 31 277 141 312 292 25 107
-4 204 -76 255 -82 58 -102 60 -651 64 -277 3 -503 2 -503 -2z"/>
<path d="M3906 1449 c-270 -29 -443 -192 -500 -471 -21 -101 -21 -294 0 -373
35 -137 120 -238 241 -286 57 -24 62 -24 448 -24 l389 0 17 73 16 72 -276 0
c-256 0 -279 2 -321 21 -58 26 -96 63 -126 122 -27 51 -47 178 -38 227 l7 30
387 0 387 0 22 56 c11 31 21 62 21 70 0 13 -56 15 -397 14 l-398 -2 2 35 c6
103 91 225 191 274 l57 28 330 5 330 5 21 60 c12 33 20 63 18 66 -6 10 -736 8
-828 -2z"/>
<path d="M5230 1450 c-100 -10 -152 -25 -231 -66 -154 -81 -246 -224 -284
-440 -59 -338 52 -574 300 -640 65 -18 770 -20 780 -3 7 10 34 114 35 131 0 4
-130 8 -288 10 l-289 3 -49 30 c-87 55 -134 158 -134 297 l0 68 392 2 393 3
22 60 c12 33 22 64 22 68 1 4 -178 7 -396 7 -219 0 -401 -1 -405 0 -10 0 20
117 42 160 33 65 78 107 152 145 l71 35 322 0 323 0 21 62 c12 34 21 66 21 70
0 10 -716 8 -820 -2z"/>
</g>
</svg>
