<?xml version="1.0" standalone="no"?>
<!DOCTYPE svg PUBLIC "-//W3C//DTD SVG 20010904//EN"
 "http://www.w3.org/TR/2001/REC-SVG-20010904/DTD/svg10.dtd">
<svg version="1.0" xmlns="http://www.w3.org/2000/svg"
 width="640.000000pt" height="251.000000pt" viewBox="0 0 640.000000 251.000000"
 preserveAspectRatio="xMidYMid meet">

<g transform="translate(0.000000,251.000000) scale(0.100000,-0.100000)"
fill="#000000" stroke="none">
<path d="M625 2500 c-182 -15 -442 -68 -570 -117 l-50 -19 -3 -1074 c-1 -591
0 -1089 3 -1106 6 -35 33 -48 210 -99 206 -60 302 -70 645 -70 349 0 395 5
582 69 126 43 194 84 290 175 87 82 135 164 164 281 25 99 16 291 -19 388 -55
157 -170 294 -300 357 -41 19 -82 35 -91 35 -28 0 -18 16 33 49 139 90 209
230 218 436 6 148 -5 216 -57 322 -87 184 -257 303 -500 353 -120 25 -386 34
-555 20z m426 -449 c74 -28 132 -71 166 -122 22 -33 28 -56 31 -111 5 -90 -12
-148 -59 -201 -59 -68 -135 -97 -268 -104 l-109 -6 -102 -178 c-57 -99 -105
-190 -108 -204 -4 -25 -3 -25 64 -26 38 0 163 -4 279 -8 243 -9 290 -21 373
-96 68 -61 96 -127 96 -225 0 -91 -23 -150 -84 -208 -90 -89 -196 -115 -460
-116 -173 -1 -257 7 -362 35 l-38 10 0 768 0 768 59 17 c100 28 170 35 321 32
120 -3 155 -7 201 -25z"/>
<path d="M3010 2500 c-110 -9 -260 -46 -353 -88 -188 -86 -350 -258 -432 -460
-80 -197 -109 -411 -102 -741 7 -336 40 -501 141 -706 90 -182 207 -300 381
-385 189 -92 367 -119 665 -102 228 13 344 37 574 115 l151 52 6 95 c9 122 8
1063 0 1155 l-6 70 -395 2 c-217 2 -400 -1 -407 -5 -20 -13 -203 -333 -218
-379 l-6 -23 239 0 c132 0 260 -3 286 -6 l46 -7 0 -288 0 -287 -77 -25 c-116
-38 -173 -47 -290 -47 -298 0 -476 131 -556 410 -40 138 -50 244 -45 476 5
183 8 221 31 307 36 134 80 219 152 293 62 63 108 92 205 127 104 37 402 33
636 -9 l31 -6 102 182 c56 100 100 188 97 195 -10 27 -260 71 -475 85 -171 11
-237 11 -381 0z"/>
<path d="M4491 2461 c-11 -7 -14 -146 -16 -832 -1 -453 0 -996 2 -1206 l3
-383 239 0 238 0 7 46 c3 26 6 260 6 520 l0 474 327 2 327 3 58 100 c104 179
170 306 163 313 -4 4 -202 8 -441 10 l-434 3 -1 447 c-1 246 -4 461 -8 477
l-6 30 -225 2 c-124 2 -231 -1 -239 -6z"/>
<path d="M5924 2462 c-13 -8 -21 -911 -16 -1869 l2 -553 239 0 c209 0 240 2
245 16 8 22 6 2320 -2 2369 l-7 40 -225 2 c-124 2 -230 0 -236 -5z"/>
</g>
</svg>
