<?xml version="1.0" standalone="no"?>
<!DOCTYPE svg PUBLIC "-//W3C//DTD SVG 20010904//EN"
 "http://www.w3.org/TR/2001/REC-SVG-20010904/DTD/svg10.dtd">
<svg version="1.0" xmlns="http://www.w3.org/2000/svg"
 width="1280.000000pt" height="173.000000pt" viewBox="0 0 1280.000000 173.000000"
 preserveAspectRatio="xMidYMid meet">

<g transform="translate(0.000000,173.000000) scale(0.100000,-0.100000)"
fill="#000000" stroke="none">
<path d="M9629 1627 c-95 -63 -86 -203 15 -251 95 -45 202 13 213 115 8 87
-58 159 -147 159 -32 0 -58 -7 -81 -23z m141 -22 c32 -17 60 -61 60 -95 0 -40
-31 -88 -67 -105 -100 -48 -204 51 -158 149 29 62 102 84 165 51z"/>
<path d="M9660 1511 c0 -38 5 -73 10 -76 6 -4 10 8 10 30 0 32 3 36 22 33 15
-2 24 -13 30 -35 5 -18 12 -33 17 -33 10 0 1 59 -10 66 -5 3 -3 14 4 24 18 29
-2 54 -47 58 l-36 3 0 -70z m58 50 c21 -13 10 -46 -16 -49 -19 -3 -22 1 -22
27 0 31 13 39 38 22z"/>
<path d="M8487 1554 c-399 -62 -696 -293 -738 -575 -24 -167 55 -348 209 -474
363 -299 1000 -323 1403 -53 323 216 381 554 139 811 -112 120 -235 194 -416
250 -171 54 -410 70 -597 41z m393 -185 c260 -72 418 -280 388 -511 -21 -166
-167 -321 -362 -385 -102 -33 -263 -37 -365 -10 -161 43 -304 153 -367 282
-27 55 -29 69 -29 170 0 103 2 114 33 179 61 129 208 241 367 280 92 22 246
20 335 -5z"/>
<path d="M6795 1544 c-105 -11 -251 -37 -298 -53 -187 -65 -366 -199 -451
-340 -81 -133 -102 -297 -57 -437 28 -87 102 -198 167 -247 75 -58 238 -134
346 -161 307 -78 709 -41 1048 98 14 6 15 20 4 129 -7 67 -13 123 -13 125 -1
2 -16 -8 -33 -21 -69 -52 -257 -128 -363 -148 -170 -31 -391 -29 -505 5 -235
70 -353 264 -295 486 33 130 100 213 223 278 196 105 532 108 858 8 l141 -43
7 66 c13 139 13 137 -50 161 -85 31 -189 59 -289 76 -89 15 -362 26 -440 18z"/>
<path d="M60 910 l0 -590 160 0 160 0 2 188 3 187 450 5 c423 5 454 7 512 27
89 30 143 64 201 128 92 101 126 256 83 385 -47 138 -117 204 -256 240 -74 19
-111 20 -697 20 l-618 0 0 -590z m1098 356 c31 -16 74 -61 91 -93 31 -61 -4
-178 -68 -220 -34 -23 -36 -23 -417 -23 l-384 0 0 175 0 175 375 0 c304 0 381
-3 403 -14z"/>
<path d="M1830 910 l0 -590 155 0 155 0 0 215 0 215 475 0 475 0 0 -215 0
-215 160 0 160 0 0 590 0 590 -160 0 -160 0 0 -255 0 -255 -475 0 -475 0 0
255 0 255 -155 0 -155 0 0 -590z"/>
<path d="M3940 910 l0 -590 160 0 160 0 0 590 0 590 -160 0 -160 0 0 -590z"/>
<path d="M4780 910 l0 -590 595 0 595 0 0 105 0 105 -435 0 -435 0 0 485 0
485 -160 0 -160 0 0 -590z"/>
</g>
</svg>
