<?xml version="1.0" standalone="no"?>
<!DOCTYPE svg PUBLIC "-//W3C//DTD SVG 20010904//EN"
 "http://www.w3.org/TR/2001/REC-SVG-20010904/DTD/svg10.dtd">
<svg version="1.0" xmlns="http://www.w3.org/2000/svg"
 width="640.000000pt" height="214.000000pt" viewBox="0 0 640.000000 214.000000"
 preserveAspectRatio="xMidYMid meet">

<g transform="translate(0.000000,214.000000) scale(0.100000,-0.100000)"
fill="#000000" stroke="none">
<path d="M1668 1913 l-68 -4 0 -599 0 -600 95 0 95 0 2 332 3 332 30 8 c17 5
65 10 107 11 64 2 82 -2 105 -19 60 -44 63 -60 63 -376 l0 -288 95 0 95 0 0
300 c0 183 -4 320 -11 352 -21 98 -61 153 -131 183 -49 20 -187 20 -263 -1
-115 -31 -103 -54 -97 175 l5 201 -29 -2 c-16 -1 -59 -3 -96 -5z"/>
<path d="M3398 1913 l-68 -4 0 -599 0 -600 95 0 96 0 -2 605 -1 605 -27 -2
c-14 -1 -56 -3 -93 -5z"/>
<path d="M6278 1913 l-68 -4 0 -599 0 -600 95 0 95 0 0 605 0 605 -27 -2 c-16
-1 -58 -3 -95 -5z"/>
<path d="M5 1890 c3 -10 77 -279 164 -597 l158 -578 96 -3 95 -3 11 33 c5 18
58 211 116 428 93 345 114 418 115 399 0 -2 51 -195 114 -429 l113 -425 96 -3
96 -3 11 38 c6 21 80 290 164 598 l154 560 -91 3 c-49 1 -92 1 -94 -2 -2 -2
-56 -197 -119 -432 -64 -236 -117 -430 -118 -432 -2 -1 -56 194 -121 433
l-118 435 -93 0 -93 0 -9 -32 c-5 -18 -58 -214 -117 -435 -60 -221 -110 -401
-112 -400 -2 3 -159 582 -224 830 l-10 37 -95 0 c-90 0 -95 -1 -89 -20z"/>
<path d="M2475 1867 c-33 -27 -44 -96 -25 -152 19 -58 97 -83 160 -50 40 21
50 43 50 115 0 51 -4 65 -25 85 -34 35 -121 36 -160 2z"/>
<path d="M3067 1536 c-32 -14 -67 -32 -76 -40 -24 -22 -28 -21 -41 19 l-12 35
-64 0 -64 0 0 -420 0 -420 95 0 95 0 0 324 0 324 38 14 c20 7 74 13 120 12
l82 0 0 88 0 88 -57 0 c-38 0 -78 -9 -116 -24z"/>
<path d="M3970 1546 c-25 -7 -67 -22 -93 -34 l-48 -21 -6 29 c-5 30 -6 30 -79
30 l-74 0 0 -376 c0 -357 1 -376 18 -363 9 8 52 45 95 83 l77 69 0 198 0 198
38 10 c54 16 157 13 200 -4 20 -9 46 -27 57 -40 l21 -25 62 82 62 81 -22 25
c-13 14 -45 35 -73 48 -57 27 -157 31 -235 10z"/>
<path d="M4725 1546 c-64 -20 -98 -42 -142 -89 -76 -83 -115 -252 -95 -419 15
-122 45 -192 106 -253 72 -71 130 -90 271 -90 99 1 116 3 173 29 137 63 192
177 192 401 0 245 -71 375 -231 419 -66 19 -217 20 -274 2z m215 -148 c35 -18
51 -35 70 -73 23 -46 25 -60 25 -195 0 -135 -2 -148 -25 -194 -32 -63 -65 -88
-129 -94 -66 -6 -93 2 -135 39 -104 91 -96 434 13 505 58 39 120 43 181 12z"/>
<path d="M5575 1546 c-117 -37 -193 -121 -223 -246 -31 -128 -23 -294 19 -405
29 -78 103 -152 179 -180 43 -16 79 -20 165 -20 99 1 116 3 173 29 138 63 192
178 192 409 0 237 -73 367 -231 411 -66 19 -217 20 -274 2z m215 -148 c35 -18
51 -35 70 -73 23 -46 25 -60 25 -195 0 -135 -2 -148 -25 -194 -33 -65 -66 -88
-135 -94 -67 -5 -105 9 -145 54 -91 104 -72 424 29 490 58 39 120 43 181 12z"/>
<path d="M2460 1130 l0 -420 95 0 95 0 0 420 0 420 -95 0 -95 0 0 -420z"/>
<path d="M4274 1214 c-72 -87 -80 -101 -86 -152 -5 -31 -19 -80 -33 -109 -31
-62 -83 -93 -161 -93 -43 -1 -55 -6 -94 -41 -25 -23 -87 -77 -137 -121 l-93
-80 0 -154 0 -154 28 0 c15 0 57 3 95 7 l67 6 0 191 0 191 142 0 c136 0 146 1
194 27 87 46 141 123 169 240 22 93 18 338 -5 338 -4 0 -43 -43 -86 -96z"/>
<path d="M4258 515 c-64 -35 -59 -153 8 -181 41 -17 104 -10 104 12 0 10 -12
14 -39 14 -50 0 -71 21 -71 69 0 48 14 61 68 61 36 0 43 3 40 18 -4 23 -73 27
-110 7z"/>
<path d="M4447 510 c-31 -24 -42 -79 -26 -127 19 -59 102 -78 151 -36 37 32
34 127 -4 163 -28 26 -87 26 -121 0z m91 -22 c16 -16 16 -100 0 -116 -7 -7
-21 -12 -33 -12 -32 0 -45 20 -45 66 0 61 44 96 78 62z"/>
<path d="M4660 431 c0 -94 1 -101 20 -101 16 0 20 7 20 35 0 25 5 35 15 35 9
0 23 -16 32 -35 12 -25 23 -35 40 -35 22 0 23 0 6 35 -9 19 -21 35 -27 35 -5
0 0 9 12 20 25 24 28 57 8 85 -9 13 -30 20 -70 23 l-56 4 0 -101z m88 32 c-2
-20 -9 -29 -25 -31 -20 -3 -23 1 -23 27 0 27 4 31 26 31 22 0 25 -4 22 -27z"/>
<path d="M4860 430 l0 -100 25 0 c22 0 25 4 25 35 0 32 3 35 28 35 41 0 63 20
64 59 2 47 -30 71 -93 71 l-49 0 0 -100z m95 30 c0 -18 -6 -26 -22 -28 -20 -3
-23 1 -23 28 0 27 3 31 23 28 16 -2 22 -10 22 -28z"/>
<path d="M5075 505 c-24 -23 -30 -49 -25 -105 3 -41 18 -59 59 -71 68 -20 121
23 121 99 0 39 -23 87 -45 96 -37 14 -86 6 -110 -19z m92 -17 c17 -22 22 -57
12 -93 -9 -30 -14 -35 -39 -35 -34 0 -50 23 -50 71 0 53 51 90 77 57z"/>
<path d="M5290 431 c0 -94 1 -101 20 -101 16 0 20 7 20 36 0 28 3 35 18 32 9
-2 23 -18 31 -36 10 -23 21 -32 38 -32 22 0 23 0 6 35 -9 19 -21 35 -27 35 -5
0 0 9 12 20 26 24 29 72 6 91 -8 7 -40 14 -70 17 l-54 4 0 -101z m94 43 c8
-21 -11 -44 -35 -44 -14 0 -19 7 -19 30 0 25 4 30 24 30 13 0 27 -7 30 -16z"/>
<path d="M5541 508 c-22 -59 -61 -170 -61 -174 0 -2 11 -4 24 -4 15 0 26 7 29
20 4 15 14 20 40 20 26 0 36 -5 40 -20 3 -13 14 -20 30 -20 l25 0 -38 98 c-30
76 -42 98 -59 100 -14 2 -24 -4 -30 -20z m39 -50 c0 -7 3 -23 6 -35 5 -19 2
-23 -15 -23 -22 0 -25 10 -15 48 7 23 24 31 24 10z"/>
<path d="M5690 510 c0 -15 7 -20 25 -20 25 0 25 -1 25 -80 0 -79 0 -80 25 -80
25 0 25 1 25 80 0 79 0 80 25 80 18 0 25 5 25 20 0 18 -7 20 -75 20 -68 0 -75
-2 -75 -20z"/>
<path d="M5890 430 c0 -93 1 -100 20 -100 19 0 20 7 20 100 0 93 -1 100 -20
100 -19 0 -20 -7 -20 -100z"/>
<path d="M6015 505 c-19 -18 -25 -35 -25 -69 0 -62 17 -93 55 -106 72 -24 125
19 125 102 0 65 -30 98 -90 98 -30 0 -47 -6 -65 -25z m104 -37 c11 -20 13 -35
6 -65 -9 -32 -15 -39 -40 -41 -35 -4 -55 18 -55 63 0 69 59 98 89 43z"/>
<path d="M6230 430 c0 -93 1 -100 20 -100 16 0 19 8 22 62 l3 61 43 -61 c28
-40 50 -62 63 -62 17 0 19 8 19 100 0 93 -1 100 -20 100 -16 0 -19 -8 -22 -62
l-3 -63 -44 63 c-27 38 -51 62 -62 62 -17 0 -19 -9 -19 -100z"/>
</g>
</svg>
